<svg width="74" height="76" viewBox="0 0 74 76" fill="none" xmlns="http://www.w3.org/2000/svg">
<path d="M13.7511 24.6467C11.799 24.6467 10.2102 26.2744 10.2102 28.2746C10.2102 30.2749 11.7988 31.9026 13.7511 31.9026C15.7035 31.9026 17.2921 30.2749 17.2921 28.2746C17.2921 26.2744 15.7035 24.6467 13.7511 24.6467ZM13.7511 29.4839C13.0996 29.4839 12.5708 28.9409 12.5708 28.2745C12.5708 27.6082 13.0996 27.0651 13.7511 27.0651C14.4027 27.0651 14.9315 27.6081 14.9315 28.2745C14.9315 28.9409 14.4027 29.4839 13.7511 29.4839Z" fill="white"/>
<path d="M27.915 24.6467C25.9628 24.6467 24.3741 26.2744 24.3741 28.2746C24.3741 30.2749 25.9627 31.9026 27.915 31.9026C29.8674 31.9026 31.456 30.2749 31.456 28.2746C31.456 26.2744 29.8672 24.6467 27.915 24.6467ZM27.915 29.4839C27.2634 29.4839 26.7347 28.9409 26.7347 28.2745C26.7347 27.6082 27.2634 27.0651 27.915 27.0651C28.5666 27.0651 29.0954 27.6081 29.0954 28.2745C29.0954 28.9409 28.5666 29.4839 27.915 29.4839Z" fill="white"/>
<path d="M19.8558 36.7397H17.2921V39.1582H19.8558C22.3249 39.1582 24.6456 38.1738 26.3888 36.3853L24.7198 34.6753C23.4203 36.0056 21.6936 36.7397 19.8558 36.7397Z" fill="white"/>
<path d="M53.882 24.6467C45.4216 24.6467 38.5379 31.6994 38.5379 40.3676C38.5379 49.0358 45.4216 56.0885 53.882 56.0885C62.3425 56.0885 69.2261 49.0358 69.2261 40.3676C69.2261 31.6981 62.3425 24.6467 53.882 24.6467ZM43.2591 47.9922V43.9955H45.6197V50.6213C44.7215 49.8593 43.9307 48.9706 43.2591 47.9922ZM52.7017 53.6082V34.3211H55.0623V53.6082C54.6727 53.6444 54.281 53.6699 53.8819 53.6699C53.4831 53.6699 53.0912 53.6444 52.7017 53.6082ZM62.1442 50.62V43.9942H64.5048V47.9909C63.8332 48.9706 63.0424 49.8593 62.1442 50.62ZM66.6176 42.9373C66.2328 42.1355 65.4349 41.5768 64.5048 41.5768H62.1442C60.8423 41.5768 59.7836 42.6615 59.7836 43.9954V52.2017C59.0352 52.5946 58.2469 52.9151 57.423 53.1547V34.3211C57.423 32.9873 56.3643 31.9026 55.0624 31.9026H52.7018C51.3999 31.9026 50.3412 32.9873 50.3412 34.3211V53.1548C49.5173 52.9154 48.7288 52.5949 47.9806 52.2018V43.9955C47.9806 42.6617 46.9219 41.577 45.62 41.577H43.2594C42.3306 41.577 41.5314 42.1357 41.1466 42.9375C40.9873 42.1055 40.8987 41.2469 40.8987 40.3678C40.8987 33.0334 46.7236 27.0654 53.8822 27.0654C61.0408 27.0654 66.8657 33.0334 66.8657 40.3678C66.8655 41.2468 66.777 42.1053 66.6176 42.9373Z" fill="white"/>
<path d="M53.1042 2.87927L50.3789 9.39385L48.7795 5.29798H43.2591V7.71655H47.1813L50.3032 15.7136L54.6599 5.29798H73.9473V2.87927H53.1042Z" fill="white"/>
<path d="M55.0623 7.71643H59.7836V10.135H55.0623V7.71643Z" fill="white"/>
<path d="M62.1442 7.71643H71.5867V10.135H62.1442V7.71643Z" fill="white"/>
<path d="M55.0623 12.5537H71.5867V14.9723H55.0623V12.5537Z" fill="white"/>
<path d="M53.882 19.8095C48.6108 19.8095 43.5909 21.9512 39.8516 25.7037C39.5707 25.4171 39.2367 25.1886 38.8754 25.0107L39.7737 22.2487C40.5207 19.9595 40.8985 17.5735 40.8985 15.1573C40.8985 10.0855 39.1953 5.11044 36.1028 1.1488L35.2035 0L34.2887 0.702658C31.4465 2.88548 27.9244 4.08865 24.3741 4.08865H13.8243C6.62563 4.08865 0.767639 10.0892 0.767639 17.466C0.767639 19.176 1.08272 20.8484 1.70124 22.435L2.72227 25.0495C1.56793 25.6481 0.767639 26.861 0.767639 28.2747C0.767639 30.2748 2.35628 31.9026 4.30861 31.9026H5.54909C5.98928 37.7884 9.59871 42.773 14.6351 45.0622L13.9434 47.8943L11.7728 48.6356C6.60176 50.4023 3.12809 55.3411 3.12809 60.9257C3.12809 64.9273 6.30437 68.1815 10.21 68.1815V75.4374H31.4557V72.8967C33.7644 72.4141 35.5869 70.547 36.0578 68.1815H36.177C37.4789 68.1815 38.5376 67.0968 38.5376 65.763V62.4011C38.5376 55.5203 34.1209 49.6334 27.7071 47.8351L27.0307 45.0634C29.8671 43.7743 32.2442 41.6289 33.8659 38.9491C33.834 39.4196 33.8163 39.8935 33.8163 40.3677C33.8163 49.5995 39.7875 57.4273 47.9802 60.0151V71.8094C47.9802 73.8096 49.5688 75.4374 51.5211 75.4374H56.2425C58.1947 75.4374 59.7835 73.8097 59.7835 71.8094V60.0151C67.976 57.4273 73.9473 49.5995 73.9473 40.3677C73.9473 29.0317 64.9463 19.8095 53.882 19.8095ZM36.1772 27.0654H37.3576C38.0091 27.0654 38.5379 27.6083 38.5379 28.2747C38.5379 28.941 38.0091 29.4841 37.3576 29.4841H36.1772V27.0654ZM3.12838 28.2747C3.12838 27.6085 3.65716 27.0654 4.30875 27.0654H5.48912V29.4839H4.30875C3.65716 29.4839 3.12838 28.941 3.12838 28.2747ZM5.48898 23.5329V24.6467H5.10775L3.89315 21.5363C3.38565 20.2364 3.12824 18.8674 3.12824 17.4658C3.12824 11.4229 7.92623 6.50706 13.8255 6.50706H24.3741C28.0449 6.50706 31.6872 5.38243 34.7538 3.32175C37.1994 6.73927 38.5379 10.9101 38.5379 15.1572C38.5379 17.3121 38.2016 19.4404 37.5359 21.483L36.5066 24.6465H36.1773V24.4396C36.1773 21.882 34.2251 19.7609 31.7322 19.6109L20.2702 18.9203C17.441 18.7487 14.8938 17.0301 13.6262 14.4314L11.5147 15.5137C11.8463 16.1946 12.2465 16.8283 12.7032 17.4086L8.55208 19.0037C6.72011 19.7067 5.48898 21.5279 5.48898 23.5329ZM22.0135 63.3444C22.0135 60.6767 19.896 58.5071 17.2921 58.5071H24.3741V68.1815H17.2921C19.8959 68.1815 22.0135 66.0121 22.0135 63.3444ZM17.2921 60.9257C18.594 60.9257 19.6527 62.0104 19.6527 63.3442C19.6527 64.6781 18.594 65.7628 17.2921 65.7628H14.9315V60.9255H17.2921V60.9257ZM31.456 70.3776V68.1815H33.5994C33.2429 69.2058 32.4557 70.0125 31.456 70.3776ZM36.1772 62.4011V65.763H31.4558V59.0078C31.4558 58.2278 31.7521 57.4949 32.2904 56.9436L30.6213 55.2336C29.637 56.2421 29.0952 57.582 29.0952 59.0078V73.0188H12.5709V68.1815H14.9315C14.9315 69.5154 15.9902 70.6001 17.2921 70.6001H24.3741C25.6759 70.6001 26.7346 69.5154 26.7346 68.1815V58.5071C26.7346 57.1733 25.6759 56.0886 24.3741 56.0886H17.2921C15.9902 56.0886 14.9315 57.1733 14.9315 58.5071H11.8792C10.4876 58.5071 9.1798 59.0621 8.19543 60.0707L9.86446 61.7807C10.4027 61.2292 11.1192 60.9257 11.8792 60.9257H12.5709V65.763H10.2103C7.60654 65.763 5.48898 63.5935 5.48898 60.9257C5.48898 56.3835 8.31465 52.3675 12.5202 50.9296L14.6128 50.2162L15.9691 51.6058C17.2497 52.9178 19.0225 53.67 20.8332 53.67C22.6439 53.67 24.4166 52.9178 25.6974 51.6058L27.0878 50.1812C32.4675 51.6952 36.1772 56.6243 36.1772 62.4011ZM25.4282 48.4614L24.0283 49.8956C23.1868 50.7578 22.0229 51.2513 20.8332 51.2513C19.6435 51.2513 18.4797 50.7578 17.6381 49.8956L16.2383 48.4614L16.8721 45.8638C18.1386 46.211 19.4617 46.414 20.8332 46.414C22.2047 46.414 23.5279 46.2108 24.7944 45.8638L25.4282 48.4614ZM33.8166 30.6933C33.8166 38.0276 27.9917 43.9956 20.8331 43.9956C13.6745 43.9956 7.84958 38.0276 7.84958 30.6933V23.5329C7.84958 22.5304 8.4645 21.6199 9.38156 21.2679L14.5927 19.2653C16.1802 20.4721 18.0994 21.211 20.1319 21.3332L31.5939 22.0237C32.8403 22.0999 33.8164 23.1604 33.8164 24.4388L33.8166 30.6933ZM57.423 71.8094C57.423 72.477 56.8942 73.0188 56.2426 73.0188H51.5213C50.8697 73.0188 50.3409 72.477 50.3409 71.8094V60.5859C51.493 60.7975 52.672 60.9257 53.8819 60.9257C55.0917 60.9257 56.2708 60.7963 57.4229 60.5859V71.8094H57.423ZM53.882 58.5071C44.1197 58.5071 36.1773 50.3698 36.1773 40.3677C36.1773 37.3505 36.9185 34.3865 38.3078 31.7526C39.7974 31.3245 40.8987 29.9351 40.8987 28.2747C40.8987 28.2094 40.8833 28.1502 40.8798 28.0861C44.2295 24.3663 48.9319 22.2282 53.8822 22.2282C63.6445 22.2282 71.5869 30.3656 71.5869 40.3677C71.5869 50.3698 63.6444 58.5071 53.882 58.5071Z" fill="white"/>
</svg>
